<svg width="800" height="800" viewBox="0 0 800 800" fill="none" xmlns="http://www.w3.org/2000/svg">
<path d="M0 208.451C0 93.3266 93.3266 0 208.451 0H591.549C706.673 0 800 93.3266 800 208.451V591.549C800 706.673 706.673 800 591.549 800H208.451C93.3266 800 0 706.673 0 591.549V208.451Z" fill="white"/>
<path d="M330.529 123.944C304.269 144.018 287.324 175.661 287.324 211.268V298.592H188.732C140.505 298.592 101.408 259.495 101.408 211.268C101.408 163.04 140.505 123.944 188.732 123.944H330.529Z" fill="#90D0C2"/>
<path d="M611.268 123.944C659.495 123.944 698.592 163.04 698.592 211.268C698.592 259.495 659.495 298.592 611.268 298.592H507.042V211.268C507.042 175.661 490.097 144.018 463.837 123.944H611.268Z" fill="#90D0C2"/>
<path d="M188.732 298.592C140.505 298.592 101.408 259.495 101.408 211.268C101.408 163.04 140.505 123.944 188.732 123.944L397.183 123.944C445.411 123.944 484.507 163.04 484.507 211.268C484.507 259.495 445.411 298.592 397.183 298.592L188.732 298.592Z" fill="#3BB828"/>
<path d="M484.507 639.437C484.507 687.664 445.411 726.761 397.183 726.761C348.955 726.761 309.859 687.664 309.859 639.437L309.859 211.268C309.859 163.04 348.955 123.944 397.183 123.944C445.411 123.944 484.507 163.04 484.507 211.268V639.437Z" fill="#3BB828"/>
<path d="M484.507 639.437C484.507 687.664 445.411 726.761 397.183 726.761C348.955 726.761 309.859 687.664 309.859 639.437L309.859 335.211C309.859 286.984 348.955 247.887 397.183 247.887C445.411 247.887 484.507 286.984 484.507 335.211L484.507 639.437Z" fill="#EDDD53"/>
<path d="M484.507 566.197C484.507 614.425 445.411 653.521 397.183 653.521C348.955 653.521 309.859 614.425 309.859 566.197L309.859 335.211C309.859 286.984 348.955 247.887 397.183 247.887C445.411 247.887 484.507 286.984 484.507 335.211L484.507 566.197Z" fill="#C4D449"/>
<path d="M484.507 464.789C484.507 513.016 445.411 552.113 397.183 552.113C348.955 552.113 309.859 513.016 309.859 464.789L309.859 335.211C309.859 286.984 348.955 247.887 397.183 247.887C445.411 247.887 484.507 286.984 484.507 335.211L484.507 464.789Z" fill="#93CA3D"/>
<path d="M484.507 340.845C484.507 389.073 445.411 428.169 397.183 428.169C348.955 428.169 309.859 389.073 309.859 340.845L309.859 211.268C309.859 163.04 348.955 123.944 397.183 123.944C445.411 123.944 484.507 163.04 484.507 211.268V340.845Z" fill="#3BB828"/>
</svg>
